<svg width="256" height="256" viewBox="0 0 256 256" fill="none" xmlns="http://www.w3.org/2000/svg">
<g clip-path="url(#clip0_2_71)">
<path d="M256 0H0V256H256V0Z" fill="black"/>
<path d="M46.7489 175.037V173.217C42.5971 175.51 37.6824 176.22 33 175.203L41.4541 168.998H35.5929L94.2707 140.104L81.1972 139.98C81.1972 139.98 131.966 109.225 144.756 101.8C157.546 94.375 165.586 92.3068 168.724 90.2385C171.861 88.1702 179.618 80.9727 183.627 78.5115L183.745 78.439C187.752 75.9787 193.62 72.3758 199.403 73.0926C204.073 73.779 208.413 75.7989 211.844 78.8837C214.589 80.9313 223 87.7359 223 87.7359C223 87.7359 211.975 91.6863 209.556 93.4443C206 96.1507 203.288 99.7259 201.712 103.786C199.816 108.129 196.374 117.374 194.086 121.986C191.798 126.599 188.072 132.596 171.752 140.601C158.003 147.385 151.227 150.011 149.288 154.727C148.319 157.081 148.01 159.634 148.392 162.135C148.774 164.637 149.833 167.002 151.467 168.998C154.19 172.121 159.594 177.747 165.194 179.339C170.794 180.932 171.208 183 171.208 183C167.719 182.038 164.118 181.489 160.487 181.366C156.462 181.399 152.46 181.949 148.591 183C148.591 180.952 152.752 179.339 152.752 179.339C152.752 179.339 152.6 176.609 144.581 171.583C142.257 170.158 140.295 168.262 138.837 166.03C137.379 163.798 136.461 161.287 136.149 158.677C136.149 158.677 122.836 157.85 122.117 157.85L130.331 155.554C116.713 148.77 46.7489 175.037 46.7489 175.037Z" fill="white"/>
</g>
<defs>
<clipPath id="clip0_2_71">
<rect width="256" height="256" fill="white"/>
</clipPath>
</defs>
</svg>
