<svg width="256" height="256" viewBox="0 0 256 256" fill="none" xmlns="http://www.w3.org/2000/svg">
<g clip-path="url(#clip0_1_28)">
<path d="M256 0H0V256H256V0Z" fill="#E6007A"/>
<path d="M127.631 69.9636C147.547 69.9636 163.691 60.5697 163.691 48.9818C163.691 37.3939 147.547 28 127.631 28C107.716 28 91.5715 37.3939 91.5715 48.9818C91.5715 60.5697 107.716 69.9636 127.631 69.9636Z" fill="white"/>
<path d="M127.631 228C147.547 228 163.691 218.606 163.691 207.018C163.691 195.43 147.547 186.036 127.631 186.036C107.716 186.036 91.5715 195.43 91.5715 207.018C91.5715 218.606 107.716 228 127.631 228Z" fill="white"/>
<path d="M77.3714 98.9825C87.3291 81.7354 87.266 63.0569 77.2305 57.2629C67.1951 51.469 50.9875 60.7536 41.0299 78.0007C31.0723 95.2478 31.1353 113.926 41.1708 119.72C51.2062 125.514 67.4138 116.23 77.3714 98.9825Z" fill="white"/>
<path d="M214.233 178.001C224.191 160.753 224.128 142.075 214.093 136.281C204.057 130.487 187.85 139.772 177.892 157.019C167.934 174.266 167.997 192.944 178.033 198.738C188.068 204.532 204.276 195.248 214.233 178.001Z" fill="white"/>
<path d="M77.2305 198.737C87.266 192.943 87.3291 174.265 77.3714 157.018C67.4138 139.771 51.2062 130.486 41.1708 136.28C31.1353 142.074 31.0723 160.752 41.0299 178C50.9875 195.247 67.1951 204.531 77.2305 198.737Z" fill="white"/>
<path d="M214.092 119.721C224.127 113.927 224.19 95.2485 214.233 78.0014C204.275 60.7543 188.068 51.4696 178.032 57.2636C167.997 63.0576 167.934 81.7361 177.891 98.9832C187.849 116.23 204.056 125.515 214.092 119.721Z" fill="white"/>
</g>
<defs>
<clipPath id="clip0_1_28">
<rect width="256" height="256" fill="white"/>
</clipPath>
</defs>
</svg>
