<svg width="256" height="256" viewBox="0 0 256 256" fill="none" xmlns="http://www.w3.org/2000/svg">
<rect width="256" height="256" fill="#E6007A"/>
<mask id="mask0_31_20" style="mask-type:alpha" maskUnits="userSpaceOnUse" x="0" y="0" width="256" height="256">
<rect width="256" height="256" fill="#E6007A"/>
</mask>
<g mask="url(#mask0_31_20)">
<rect x="-46.0801" y="-10.24" width="435.2" height="286.72" fill="url(#paint0_linear_31_20)"/>
<path d="M-4.81767 -414.529C0.578337 -350.008 27.012 -288.024 69.7019 -239.478C113.485 -189.699 174.139 -156.17 239.164 -144.239C271.199 -138.343 304.668 -137.246 336.839 -142.8C367.439 -148.079 398.312 -161.45 415.593 -188.671C423.311 -200.738 428.024 -215.069 427.819 -229.468C427.615 -244.827 421.126 -258.677 411.631 -270.471C401.113 -283.567 387.657 -294.675 374.337 -304.891C361.155 -314.97 346.948 -323.884 331.443 -329.986C297.017 -343.426 262.797 -335.952 229.806 -322.033C194.835 -307.291 161.024 -289.875 127.146 -272.939C57.817 -238.313 -13.0141 -204.098 -89.9927 -190.796C-109.323 -187.436 -128.994 -185.517 -148.597 -185.311C-166.152 -185.105 -185.208 -185.242 -202.216 -190.042C-209.729 -192.168 -217.448 -195.733 -221.819 -202.521C-227.488 -211.298 -225.508 -222.268 -223.049 -231.73C-218.882 -247.501 -211.027 -262.174 -200.85 -274.859C-179.812 -301.12 -149.964 -318.536 -117.929 -327.655C-99.6235 -332.866 -80.635 -335.54 -61.6465 -336.569C-43.3411 -337.529 -23.8745 -338.214 -5.70562 -335.198C12.0534 -332.318 24.3481 -321.21 30.4272 -304.343C36.5745 -287.407 35.4817 -269.442 34.8669 -251.752C33.979 -225.217 36.1647 -187.299 65.9452 -176.466C81.3819 -170.843 99.824 -176.74 114.919 -181.128C130.629 -185.722 145.929 -191.756 160.546 -199.093C175.641 -206.704 189.985 -215.686 203.373 -226.039C214.848 -234.816 228.167 -244.69 235.885 -257.169C241.35 -266.014 244.492 -278.15 234.793 -285.144C234.246 -285.555 233.29 -285.487 232.743 -285.144C204.671 -267.934 189.097 -237.01 183.223 -205.332C177.759 -175.78 177.895 -139.371 197.635 -114.756C213.482 -95.0086 244.56 -89.7289 264.163 -107.556C273.521 -116.059 276.458 -129.155 272.155 -141.017C267.032 -155.073 253.918 -165.015 239.642 -168.443C220.859 -172.969 201.05 -167.895 183.291 -161.724C166.83 -155.964 151.052 -148.422 135.957 -139.714C104.469 -121.544 75.9176 -98.8483 46.8201 -77.1127C17.1079 -54.9657 -13.424 -33.5043 -47.7125 -19.0367C-86.1677 -2.71787 -128.038 5.51012 -169.84 4.96159C-188.692 4.68732 -210.208 4.34448 -227.488 -4.08922C-246.067 -13.2086 -251.805 -32.5444 -247.092 -51.743C-242.584 -70.1189 -231.382 -85.6835 -218.814 -99.3283C-206.314 -112.904 -192.039 -124.835 -176.739 -135.12C-146.207 -155.553 -111.918 -169.609 -76.81 -179.963C-67.9988 -182.568 -59.1193 -184.899 -50.2398 -187.025C-40.6772 -189.356 -30.0901 -192.785 -20.1861 -192.168C2.14933 -190.728 5.56456 -163.849 9.38958 -146.502C26.4656 -69.9132 33.091 10.1727 65.5354 82.4419C69.5653 91.4927 74.0051 100.338 78.923 108.909C82.2699 114.805 86.3681 121.182 93.6083 122.348C109.455 124.748 119.086 104.589 123.799 92.7954C130.014 77.1623 135.274 56.318 130.629 39.5877C126.531 24.9831 112.87 19.5663 98.8677 20.8691C81.3819 22.5147 64.8524 31.154 49.0059 38.0793C29.1977 46.7187 9.59446 55.9752 -9.80385 65.5059C-48.3273 84.4303 -86.3043 104.452 -124.896 123.376C-201.875 161.431 -283.02 195.508 -369.219 204.628C-389.915 206.822 -410.68 207.507 -431.444 206.479C-430.761 207.165 -430.078 207.85 -429.395 208.536C-428.848 181.795 -408.494 159.991 -384.314 151.146C-357.471 141.341 -327.964 148.746 -303.989 162.665C-278.102 177.75 -258.157 200.445 -239.715 223.758C-221.751 246.522 -204.333 269.629 -184.32 290.747C-110.484 368.433 -13.6289 423.904 90.7396 447.628C114.783 453.113 142.104 458.256 163.142 441.8C178.442 429.801 185.341 410.396 187.868 391.678C190.805 369.256 188.346 345.464 181.447 323.934C173.797 300.072 157.336 283.274 131.654 281.354C103.922 279.297 75.3712 290.267 49.0059 297.261C16.1517 305.969 -16.6342 314.677 -49.4884 323.385C-81.9328 331.956 -114.309 340.595 -146.753 349.166C-162.736 353.417 -178.788 357.668 -194.771 361.92C-210.686 366.171 -226.669 371.45 -242.857 374.399C-258.43 377.21 -270.998 369.942 -271.613 353.486C-272.091 341.624 -267.856 329.899 -262.733 319.408C-250.37 294.107 -236.436 269.629 -221.068 246.042C-189.512 197.497 -151.944 152.86 -109.459 113.571C-99.1454 104.04 -88.5583 94.7839 -77.6979 85.8702C-78.6542 85.8702 -79.6105 85.8702 -80.5667 85.8702C-47.4393 111.651 -44.0924 157.728 -37.3986 196.057C-33.0955 220.741 -27.6995 245.288 -21.4155 269.56C-18.2052 281.902 -14.7217 294.176 -10.965 306.381C-7.89135 316.46 -5.22748 327.225 -0.446205 336.618C2.76408 342.858 7.68197 349.166 15.0588 350.195C22.2307 351.223 28.1731 346.835 32.408 341.418C38.6236 333.327 42.517 323.248 46.8201 314.06C51.9429 303.158 56.8608 292.119 61.5055 281.011C79.7426 237.471 94.3596 192.354 105.152 146.415C117.31 94.3725 124.55 41.1648 126.804 -12.3172C126.872 -14.3742 124.004 -15.0599 122.979 -13.3457C98.8677 28.1371 87.6659 76.6823 91.6958 124.542C95.0427 164.653 110.957 207.302 152.281 220.878C172.909 227.666 195.449 226.775 216.624 223.209C238.686 219.507 260.338 212.993 280.693 203.736C320.924 185.429 355.691 154.985 374.064 114.12C382.739 94.8525 387.725 73.8025 387.452 52.6154C387.247 34.3081 383.968 12.2297 369.488 -0.592291C352.89 -15.3341 330.896 -6.62618 315.391 5.16728C298.998 17.6464 285.269 33.5539 274.545 51.1069C223.249 134.895 242.169 242.888 270.174 331.407C298.11 419.584 344.215 501.933 404.938 571.596C412.383 580.167 420.101 588.532 428.024 596.692C429.937 598.612 432.532 595.8 430.893 593.812C349.065 489.659 261.841 389.758 169.494 294.793C77.7618 200.514 -18.9566 110.897 -120.046 26.6972C-168.611 -13.7571 -219.36 -51.6059 -267.241 -92.8144C-289.918 -112.356 -311.776 -132.926 -331.584 -155.416C-341.829 -167.072 -351.528 -179.277 -360.408 -192.03C-364.37 -197.79 -368.263 -203.618 -371.883 -209.583C-373.727 -212.6 -375.503 -215.617 -377.211 -218.634C-379.806 -223.16 -379.738 -225.217 -377.484 -229.811C-365.053 -254.769 -330.423 -259.431 -305.901 -261.9C-273.389 -265.122 -240.603 -263.408 -208.432 -257.717C-143.543 -246.267 -82.1377 -219.937 -24.2843 -189.013C88.5538 -128.812 190.873 -47.7662 312.796 -5.66624C341.757 4.34449 371.537 11.9554 401.932 16.0008C417.096 18.0578 432.328 19.2234 447.628 19.4291C453.98 19.4977 457.122 20.869 460.264 15.1094C463.338 9.48698 465.045 3.17886 465.523 -3.26641C467.572 -28.7732 452.204 -52.9772 433.284 -68.7476C414.569 -84.3122 391.14 -93.1573 367.302 -96.7227C309.107 -105.362 254.669 -81.7067 204.261 -54.9657C190.19 -47.4919 176.256 -39.8124 162.185 -32.4072C148.934 -25.4134 128.307 -10.3288 113.28 -19.7224C102.078 -26.7162 99.4824 -42.6237 97.9798 -54.6914C95.794 -72.4502 94.428 -90.346 93.2668 -108.173C88.6904 -179.208 90.8079 -250.655 99.6191 -321.278C101.873 -339.654 104.674 -358.03 107.884 -376.269C110.479 -391.011 112.255 -406.918 118.403 -420.769C124.618 -434.619 136.981 -443.601 152.486 -438.047C167.377 -432.699 178.578 -419.055 189.029 -407.741C263.617 -326.764 314.093 -222.885 403.503 -156.101C426.932 -138.617 453.98 -121.27 483.419 -117.361C507.462 -114.139 535.193 -122.367 548.034 -144.514C555.411 -157.267 555.684 -172.283 554.113 -186.545C552.406 -202.178 549.264 -217.743 545.78 -233.102C538.745 -263.957 528.978 -294.126 516.683 -323.198C504.252 -352.476 489.225 -380.589 471.807 -407.193C471.329 -407.947 470.373 -408.427 469.485 -408.152C411.973 -387.788 391.618 -324.844 362.794 -277.053C346.606 -250.175 324.885 -223.023 295.515 -210.132C264.573 -196.487 231.377 -206.018 208.496 -230.016C179.125 -260.871 172.636 -304.685 166.898 -345.071C165.874 -344.317 164.918 -343.494 163.893 -342.74C215.599 -320.044 237.115 -263.134 258.357 -214.863C263.958 -202.11 269.696 -189.425 276.116 -177.083C284.176 -161.587 293.397 -146.776 301.594 -131.28C316.757 -102.551 328.642 -69.0904 318.806 -36.5212C309.449 -5.59767 281.239 6.47007 254.532 19.292C242.443 25.1202 230.353 31.4969 220.517 40.7534C209.725 50.9013 202.485 64.066 196.611 77.5051C184.521 105.275 176.324 138.049 149.139 155.26C133.771 164.996 117.583 163.762 101.463 156.425C87.8025 150.254 75.1662 143.123 60.4126 139.695C6.45248 127.284 -57.48 152.723 -80.4984 205.245C-93.8177 235.688 -86.3726 269.423 -72.302 298.221C-59.4608 324.482 -40.6772 347.658 -18.5467 366.651C30.5638 408.751 94.0182 428.498 157.951 430.692C192.034 431.858 226.869 428.635 260.133 421.093C286.635 415.059 313.205 405.322 334.858 388.386C356.305 371.656 370.376 347.795 372.015 320.3C374.064 286.839 359.789 254.476 344.352 225.678C328.027 195.234 308.834 164.653 303.916 129.821C299.408 98.1436 309.517 67.7687 324.476 40.2049C339.024 13.3267 357.398 -11.1516 372.835 -37.4812C389.842 -66.4849 400.156 -97.6141 408.763 -130.046C424.131 -188.259 441.958 -262.38 504.115 -287.612C539.155 -301.874 577.61 -292.343 611.899 -280.687C642.157 -270.402 672.621 -259.294 701.24 -244.895C728.289 -231.319 753.971 -213.972 773.028 -190.111C775.555 -186.956 779.448 -183.802 777.809 -179.894C776.648 -177.151 774.462 -174.546 772.754 -172.146C768.246 -165.838 763.123 -160.01 757.454 -154.662C746.867 -144.582 734.641 -136.423 721.731 -129.84C694.956 -116.127 665.107 -108.859 635.395 -105.431C601.243 -101.454 566.681 -101.66 532.461 -105.362C462.381 -112.973 394.351 -135.394 330.896 -165.701C299.408 -180.717 268.945 -197.859 239.437 -216.44C210.886 -234.473 183.155 -253.74 154.057 -270.882C125.848 -287.475 96.1356 -302.148 64.3742 -310.719C37.804 -317.919 -0.24131 -323.13 -15.0633 -293.098C-19.9128 -283.293 -19.503 -271.636 -13.0824 -262.654C-7.75473 -255.18 0.714945 -250.998 9.18463 -247.981C29.949 -240.576 58.2952 -239.204 69.9068 -217.331C82.5431 -193.539 71.956 -164.124 83.3627 -139.851C85.5485 -135.189 87.6659 -130.663 92.9253 -129.703C98.5262 -128.675 104.332 -129.292 109.865 -130.458C121.886 -132.926 135.069 -140.125 147.568 -137.931C164.44 -134.983 163.142 -115.579 167.445 -103.031C170.86 -93.1573 180.559 -82.3923 191.829 -86.7806C193.537 -87.4662 193.947 -90.2775 191.829 -90.7574C140.465 -102.414 86.9145 -99.6025 34.5937 -99.2597C-20.6642 -98.8483 -75.8537 -98.2998 -131.112 -97.5455C-186.37 -96.7913 -241.559 -95.8999 -296.817 -94.8714C-316.762 -94.46 -337.731 -95.6257 -356.924 -89.1119C-364.165 -86.712 -371.268 -83.1465 -376.596 -77.5241C-379.875 -74.0957 -386.159 -65.5935 -384.451 -60.5196C-383.29 -57.0912 -377.416 -52.9772 -374.82 -50.4402C-370.722 -46.4634 -366.487 -42.6922 -362.116 -38.9896C-354.329 -32.4758 -346.064 -26.3733 -337.526 -20.8195C-319.631 -9.09455 -300.437 0.436192 -280.629 8.38992C-238.485 25.3259 -193.815 34.8566 -149.144 41.8504C-43.3411 58.4436 64.2376 60.0206 170.997 54.261C225.093 51.3127 279.122 46.513 333.014 40.8219C353.915 38.6278 374.816 35.6109 395.853 36.4337C413.681 37.1194 432.806 40.1363 447.628 50.6956C454.936 55.9066 460.4 62.8318 464.089 70.9227C464.225 70.0999 464.294 69.2771 464.43 68.4543C442.846 85.8016 416.959 95.881 390.389 102.669C362.248 109.869 333.287 114.394 304.463 118.097C244.423 125.776 183.633 127.627 123.252 123.788C93.1302 121.868 63.418 117.754 33.5009 113.777C23.4602 112.474 12.395 112.543 4.94982 120.565C-0.582797 126.462 -1.53905 134.758 -0.856012 142.506C0.100243 152.997 3.37882 163.076 5.83777 173.224C8.91144 186.115 11.4387 201.748 -4.40783 206.479C-16.361 210.113 -30.4316 207.85 -42.658 207.439C-58.3679 206.959 -74.0096 206.479 -89.7195 205.999C-159.663 203.805 -229.674 201.679 -299.617 199.485C-301.598 199.417 -302.486 202.365 -300.642 203.325C-233.363 238.705 -166.083 274.017 -98.8039 309.398C-67.9305 325.648 -37.3303 343.407 -4.68106 355.886C25.0312 367.199 57.9537 373.233 88.827 362.88C117.105 353.417 139.987 332.779 160.136 311.386C181.242 289.033 200.231 264.623 216.897 238.705C250.434 186.458 274.409 127.833 286.635 66.8773C300.706 -3.06072 299.75 -74.7128 301.252 -145.748C302.004 -181.54 303.438 -217.469 307.809 -253.055C310.064 -271.636 313.137 -290.149 317.372 -308.388C320.856 -323.404 325.432 -338.557 333.765 -351.654C342.166 -364.75 354.461 -374.76 369.898 -377.846C384.242 -380.726 398.79 -376.68 407.806 -364.75C420.648 -347.677 421.194 -321.964 438.475 -308.114C459.649 -291.109 489.293 -307.977 507.257 -321.69C528.09 -337.597 548.376 -361.664 575.219 -366.875C581.708 -368.11 588.812 -368.178 594.959 -365.641C603.907 -361.939 606.844 -353.711 606.981 -344.591C607.186 -326.558 604.932 -308.182 603.224 -290.218C601.585 -273.419 601.38 -254.152 592.705 -239.204C584.031 -224.188 566.955 -218.36 551.723 -212.395C534.647 -205.675 517.503 -198.956 500.427 -192.236C484.512 -185.997 468.324 -178.386 451.248 -175.849C432.601 -173.037 414.91 -179.003 398.312 -187.094C383.627 -194.293 369.488 -202.658 355.827 -211.572C300.569 -247.706 253.235 -294.4 199.684 -332.866C148.251 -369.755 87.7342 -400.953 23.1187 -401.501C-3.99801 -401.707 -35.5544 -398.347 -52.1523 -374.075C-66.2229 -353.505 -67.0426 -326.421 -69.0234 -302.423C-71.8238 -268.894 -81.5913 -237.284 -87.8752 -204.372C-93.203 -176.123 -93.6128 -147.942 -83.9136 -120.584C-66.9742 -72.7244 -25.7187 -33.5729 23.2553 -20.3395C50.3036 -13.0029 77.4203 -16.2255 104.742 -20.1338C133.839 -24.3163 167.172 -30.2131 194.288 -15.1284C222.43 0.573333 233.017 34.1024 231.104 64.7517C229.943 82.9904 224.957 100.749 218.946 117.891C214.37 131.056 203.851 147.786 211.706 161.568C214.711 166.779 219.288 171.03 223.386 175.281C229.123 181.246 234.861 187.143 240.872 192.834C251.39 202.708 262.661 211.964 275.297 219.027C302.755 234.317 331.921 233.768 360.95 223.346C376.25 217.861 390.867 210.73 405.757 204.285C421.604 197.428 437.655 191.189 453.98 185.566C485.468 174.664 517.776 166.093 550.425 159.785C616.407 147.1 684.232 143.74 751.102 150.049C784.093 153.134 816.81 158.619 849.05 166.367C851.645 166.985 852.738 163.008 850.143 162.391C720.843 131.261 583.211 137.501 457.19 180.081C441.412 185.429 425.839 191.326 410.47 197.771C394.965 204.285 379.87 211.759 364.229 217.724C348.314 223.758 331.374 228.283 314.23 227.049C298.52 225.883 283.698 219.781 270.584 211.279C257.469 202.845 245.926 192.217 234.929 181.246C230.148 176.447 225.367 171.579 220.79 166.573C217.99 163.488 215.189 160.334 213.823 156.288C211.706 150.117 213.687 143.946 215.804 138.118C226.938 107.537 238.891 75.9281 234.451 42.7418C230.831 15.7951 216.555 -9.64309 191.215 -21.1623C165.737 -32.75 136.571 -28.7046 109.865 -24.9334C80.5623 -20.8195 51.6697 -16.4998 22.6405 -24.7278C-3.38328 -32.133 -27.0848 -47.0805 -45.8 -66.622C-64.5153 -86.1635 -78.381 -110.505 -84.46 -136.971C-91.9052 -169.198 -84.8699 -201.424 -77.2198 -232.896C-73.2582 -249.078 -69.2283 -265.191 -67.0425 -281.716C-65.1983 -295.155 -64.5836 -308.731 -63.2175 -322.17C-60.2805 -349.802 -52.9719 -379.972 -24.1477 -390.805C-8.71099 -396.565 8.84311 -397.525 25.2361 -397.25C41.6973 -396.908 58.0903 -394.508 74.0734 -390.531C106.245 -382.44 136.571 -368.11 164.849 -350.899C221.063 -316.753 268.535 -270.471 320.924 -231.045C346.879 -211.503 374.474 -192.579 404.391 -179.62C418.667 -173.449 433.762 -169.541 449.404 -171.392C465.865 -173.38 481.37 -180.305 496.67 -186.339C513.746 -193.059 530.89 -199.778 547.966 -206.498C561.217 -211.709 575.698 -216.303 586.626 -225.765C598.101 -235.639 602.199 -250.106 604.249 -264.574C606.708 -281.853 608.074 -299.337 609.303 -316.685C609.918 -325.255 610.669 -333.826 610.806 -342.397C610.942 -349.117 610.259 -355.973 606.298 -361.596C600.15 -370.372 588.607 -372.566 578.566 -371.538C552.816 -368.932 532.188 -347.608 513.199 -331.906C494.211 -316.205 457.463 -289.944 436.084 -315.862C421.945 -333.003 422.082 -358.716 404.664 -373.801C386.222 -389.708 357.398 -383.126 341.005 -367.424C319.148 -346.511 313.137 -313.462 308.083 -284.938C295.651 -214.726 297.291 -143.211 295.378 -72.1759C293.534 -2.92357 287.25 65.9859 264.163 131.673C243.057 191.874 210.34 247.962 168.333 295.821C147.91 318.997 125.096 342.652 96.4771 355.337C63.8278 369.736 28.3097 364.182 -3.99802 351.84C-37.8768 338.95 -69.6381 320.231 -101.673 303.364C-134.937 285.879 -168.201 268.395 -201.465 250.91C-233.977 233.837 -266.49 216.764 -299.003 199.691C-299.344 200.994 -299.686 202.228 -300.027 203.531C-236.436 205.519 -172.777 207.439 -109.186 209.427C-78.7908 210.387 -48.0541 212.719 -17.6588 212.17C-8.98421 212.033 1.05649 210.799 7.20384 203.942C14.0342 196.4 12.3266 185.498 10.3458 176.378C6.58909 158.551 -9.46231 119.605 21.3428 117.205C27.9682 116.657 34.7303 118.097 41.2192 119.125C48.7326 120.291 56.2461 121.319 63.7595 122.279C79.2645 124.268 94.8378 125.845 110.479 127.01C171.27 131.673 232.47 130.507 292.987 123.513C325.159 119.811 357.466 115.011 388.955 107.126C416.959 100.132 444.212 89.5728 466.889 71.3341C467.641 70.717 467.572 69.6199 467.231 68.8657C452.682 37.1194 414.5 31.634 383.422 32.2511C361.428 32.7311 339.503 36.0223 317.714 38.285C291.143 41.0276 264.573 43.496 238.003 45.6216C132.746 54.0553 26.6705 56.8666 -78.5176 46.7187C-126.877 42.0562 -175.441 35.1995 -222.502 23.0632C-264.509 12.2297 -305.833 -3.40356 -341.693 -28.2247C-350.914 -34.6014 -359.657 -41.5266 -367.921 -49.1375C-371.61 -52.5658 -375.367 -55.9942 -378.713 -59.7653C-380.694 -61.9595 -380.831 -62.3708 -379.875 -65.1821C-378.987 -67.6505 -377.757 -69.9818 -376.186 -72.1073C-365.531 -86.3692 -343.947 -89.249 -327.485 -90.0718C-301.325 -91.3745 -274.96 -91.1689 -248.799 -91.6488C-222.024 -92.1288 -195.249 -92.5402 -168.474 -92.9516C-114.514 -93.7058 -60.5537 -94.3915 -6.59356 -94.8029C20.1816 -95.0086 46.8884 -95.2143 73.6636 -95.3514C99.2092 -95.4885 124.755 -95.5571 150.232 -93.1573C163.756 -91.8545 177.144 -89.7975 190.395 -86.7806C190.395 -88.0833 190.395 -89.4547 190.395 -90.7574C177.895 -85.9578 171.202 -101.934 169.221 -111.465C167.445 -119.898 166.215 -129.223 159.931 -135.669C149.003 -146.982 132.678 -141.291 119.769 -137.52C111.914 -135.189 101.873 -131.555 93.6083 -133.749C85.7534 -135.874 83.1578 -150.753 82.0649 -157.678C79.3328 -175.232 81.7917 -193.539 76.6006 -210.681C66.9698 -242.358 33.1593 -242.838 7.27213 -253.055C-8.8476 -259.431 -20.6642 -274.242 -11.5115 -291.932C0.714953 -315.519 30.0857 -314.422 52.2844 -309.485C95.9307 -299.817 135.615 -277.944 173.114 -254.289C211.228 -230.291 248.248 -204.715 287.796 -183.048C366.961 -139.783 453.912 -107.762 544.209 -100.151C586.353 -96.5856 629.931 -97.8884 671.186 -107.625C706.841 -116.059 742.701 -131.76 767.427 -159.667C773.232 -166.249 778.355 -173.449 782.658 -181.06C783 -181.677 783.068 -182.568 782.658 -183.117C760.391 -215.617 727.196 -237.353 692.019 -253.603C674.055 -261.968 655.545 -269.031 636.966 -275.819C614.562 -284.047 591.954 -292.412 568.389 -296.457C546.327 -300.229 523.445 -299.954 502.407 -291.521C485.946 -284.87 471.602 -273.899 459.854 -260.666C432.259 -229.605 419.555 -189.631 409.172 -150.136C403.162 -127.441 397.629 -104.539 389.364 -82.4609C381.783 -62.0966 371.332 -43.3093 359.789 -25.002C338.956 7.97851 314.23 40.1363 303.233 78.1908C297.837 96.8409 296.539 116.245 299.955 135.375C303.848 157.18 313.274 177.612 323.451 197.085C344.625 237.608 374.064 281.491 366.209 329.625C359.584 369.873 325.022 394.9 289.162 408.134C248.044 423.355 201.938 428.086 158.429 426.715C72.1609 424.041 -16.5659 386.878 -62.1247 309.877C-73.668 290.336 -82.8208 268.258 -84.1185 245.288C-85.5529 220.604 -75.9903 197.977 -59.5974 179.875C-33.1638 150.871 7.75027 136.952 46.342 141.615C55.9045 142.781 65.3988 145.112 74.4149 148.677C84.5239 152.654 93.8815 158.345 103.991 162.391C121.681 169.453 139.645 167.327 154.877 155.74C187.663 130.781 189.917 86.9673 212.662 55.1524C235.612 23.0632 278.917 20.3891 305.555 -7.03757C333.014 -35.3556 328.437 -79.3068 314.23 -112.836C305.146 -134.16 292.646 -153.702 281.649 -173.997C272.701 -190.59 265.12 -207.869 257.538 -225.148C243.399 -257.374 229.192 -291.178 205.08 -317.37C193.81 -329.575 180.491 -339.517 165.259 -346.168C163.552 -346.922 161.981 -345.688 162.254 -343.837C167.513 -307.222 173.182 -268.276 195.791 -237.833C214.028 -213.217 242.374 -195.939 273.726 -199.916C303.848 -203.687 328.506 -224.942 346.811 -247.844C366.892 -272.939 379.733 -302.286 395.512 -330.124C412.997 -360.979 435.128 -391.834 469.826 -404.107C469.075 -404.45 468.255 -404.724 467.504 -405.067C503.5 -350.076 529.183 -288.572 542.843 -224.188C549.264 -193.813 560.056 -152.742 529.866 -131.623C501.998 -112.15 467.026 -122.024 439.704 -137.04C340.049 -191.688 284.996 -298.309 214.916 -383.331C206.037 -394.165 196.816 -404.724 187.253 -414.872C177.827 -424.883 167.923 -435.716 155.014 -441.133C144.426 -445.521 132.542 -444.561 123.799 -436.676C115.602 -429.202 111.641 -417.889 109.045 -407.33C100.985 -374.418 96.8186 -339.997 93.1302 -306.331C89.1686 -270.745 86.9145 -235.022 86.3681 -199.23C85.8217 -163.438 86.9145 -127.646 89.715 -91.9231C90.9445 -76.2899 91.7641 -60.2453 94.7695 -44.8178C96.7503 -34.6699 100.507 -23.2879 109.318 -16.9797C119.974 -9.36884 132.678 -13.4143 143.47 -18.4882C158.497 -25.6191 173.046 -33.7786 187.663 -41.6637C216.624 -57.2969 245.858 -73.0673 277.278 -83.4208C326.798 -99.7397 388.476 -100.768 430.483 -65.1821C451.248 -47.5605 470.578 -15.0599 456.575 12.2296C454.458 16.4122 451.316 15.4523 447.013 15.3837C443.324 15.3152 439.704 15.2466 436.016 15.1094C428.024 14.7666 420.033 14.1495 412.11 13.3267C396.468 11.6811 380.895 9.00701 365.595 5.51012C239.096 -23.0822 132.951 -102.482 22.8454 -166.866C-33.6419 -199.916 -92.5882 -230.153 -155.428 -249.009C-185.686 -258.06 -216.765 -264.368 -248.321 -266.631C-277.692 -268.688 -308.975 -268.276 -337.663 -260.94C-348.728 -258.129 -359.793 -253.809 -368.878 -246.747C-372.839 -243.661 -376.391 -240.096 -379.192 -235.913C-381.241 -232.828 -385.271 -226.382 -384.656 -222.474C-384.109 -219.388 -380.831 -215.48 -379.26 -212.806C-377.484 -209.789 -375.64 -206.772 -373.796 -203.824C-369.697 -197.31 -365.394 -190.933 -360.886 -184.694C-352.621 -173.243 -343.742 -162.204 -334.384 -151.576C-294.017 -105.911 -245.657 -68.4047 -198.118 -30.7616C-94.0226 51.107 5.29133 138.324 99.7557 230.752C193.81 322.837 283.152 419.79 367.097 521.268C387.725 546.158 408.011 571.391 428.024 596.829C428.981 595.869 429.937 594.909 430.893 593.949C370.922 531.759 323.246 457.981 291.075 377.69C275.092 337.784 262.865 296.301 254.874 253.996C245.789 205.793 242.374 155.123 255.215 107.332C265.734 68.18 287.728 28.9599 321.88 5.7844C331.784 -0.935133 344.011 -6.42049 356.1 -3.19786C366.278 -0.455191 373.108 8.52706 377.07 17.7836C385.198 36.708 384.788 59.7464 380.895 79.6307C372.63 122.142 345.718 158.619 310.268 182.686C275.707 206.136 231.992 220.947 190.19 221.906C168.879 222.386 146.544 218.204 129.741 204.216C113.963 191.12 104.947 171.784 100.097 152.106C89.5101 108.977 94.9744 61.3919 111.094 20.3891C115.397 9.48699 120.588 -1.00371 126.463 -11.1516C125.165 -11.4944 123.935 -11.8372 122.637 -12.1801C118.812 78.6022 100.37 168.63 68.131 253.584C59.7979 275.594 50.4402 297.261 40.2629 318.448C36.233 326.882 32.1348 339.018 23.8017 344.298C13.0097 351.155 5.08642 339.91 1.39801 330.996C-7.4132 309.603 -13.0141 286.153 -18.7517 263.801C-24.6941 240.694 -29.6803 217.312 -33.7102 193.863C-40.404 155.191 -44.2973 109.046 -77.6979 83.059C-78.6542 82.3048 -79.6788 82.3048 -80.5667 83.059C-124.759 119.331 -164.376 160.882 -198.596 206.753C-215.877 229.86 -231.655 254.064 -245.999 279.16C-253.171 291.707 -259.933 304.461 -266.217 317.42C-270.793 326.813 -274.413 336.756 -275.438 347.246C-276.258 355.954 -275.028 365.622 -268.812 372.205C-260.548 380.981 -248.048 380.09 -237.324 377.553C-204.538 369.805 -172.026 360.274 -139.445 351.635C-74.2145 334.287 -8.9842 317.008 56.2461 299.661C83.2261 292.53 115.261 279.571 143.334 287.525C171.748 295.616 180.218 327.088 183.565 353.143C186.365 375.084 185.614 399.494 175.573 419.653C170.792 429.252 163.756 437.549 154.33 442.76C140.328 450.508 124.004 449.822 108.703 447.216C54.3335 437.823 0.988192 417.321 -47.3027 390.923C-95.7985 364.457 -140.264 330.653 -178.651 290.885C-198.733 270.04 -216.287 247.345 -234.046 224.581C-251.736 201.954 -270.588 179.669 -294.768 163.693C-316.557 149.294 -343.059 139.764 -369.424 143.329C-391.281 146.277 -412.251 159.031 -424.136 177.75C-430.078 187.006 -433.288 197.565 -433.493 208.605C-433.493 209.77 -432.537 210.593 -431.444 210.662C-272.774 218.067 -133.297 129.821 4.26678 63.4489C21.616 55.0838 39.0335 46.993 56.7242 39.3821C72.0926 32.7997 89.4418 23.6117 106.723 24.9831C130.356 26.9029 129.605 52.6154 126.189 70.4427C124.55 79.0136 121.954 87.4473 118.403 95.401C114.578 104.04 108.908 115.422 98.936 118.097C88.144 120.976 82.8846 107.743 78.8546 100.201C74.4149 91.8355 70.3167 83.1961 66.5599 74.4882C59.4563 57.8265 53.7188 40.6848 48.8009 23.2689C38.9651 -11.6315 32.6129 -47.3548 26.124 -83.0094C22.7771 -101.248 19.4302 -119.555 15.6052 -137.726C12.5315 -152.399 10.4824 -169.335 2.49086 -182.362C-6.04714 -196.419 -20.3227 -197.516 -35.2129 -194.499C-51.196 -191.276 -67.1109 -187.025 -82.6842 -182.294C-114.445 -172.626 -145.592 -159.735 -173.665 -141.771C-199.552 -125.246 -225.439 -103.511 -241.013 -76.5642C-254.81 -52.7715 -260.274 -18.5568 -232.816 -2.16936C-219.77 5.64724 -203.855 7.22429 -189.033 8.38992C-170.181 9.82982 -151.125 9.48697 -132.341 7.42997C-96.5498 3.45311 -61.5782 -6.69474 -29.2705 -22.8079C0.441738 -37.6183 27.3535 -57.1598 53.8554 -77.0441C80.2207 -96.8599 106.245 -117.224 134.659 -134.023C149.344 -142.731 164.644 -150.41 180.696 -156.307C198.182 -162.752 217.717 -168.512 236.432 -164.878C253.303 -161.587 270.72 -147.805 270.174 -129.018C269.764 -115.647 259.245 -106.254 247.156 -102.688C234.246 -98.8483 219.492 -100.7 208.905 -109.27C196.679 -119.075 190.053 -133.954 186.98 -148.971C180.491 -180.374 186.024 -216.577 201.119 -244.758C204.534 -251.135 208.496 -257.237 213.14 -262.723C217.785 -268.276 224.888 -276.847 231.787 -279.521C234.314 -280.481 234.451 -280.756 236.159 -278.013C237.183 -276.367 237.32 -274.036 237.251 -272.116C237.047 -268.071 235.339 -264.094 233.426 -260.666C229.123 -252.986 222.225 -247.089 215.736 -241.33C189.166 -217.674 157.746 -199.504 124.14 -188.191C116.49 -185.654 108.703 -183.391 100.78 -181.54C90.4663 -179.14 79.2645 -176.534 68.8823 -179.826C52.8309 -184.899 44.0196 -201.767 40.7411 -217.263C33.7741 -250.792 48.2545 -288.161 27.9682 -318.81C19.9084 -331.084 7.75027 -337.46 -6.59356 -339.517C-24.5575 -342.054 -43.4094 -341.711 -61.5099 -340.683C-125.374 -337.255 -195.181 -310.925 -221.819 -247.569C-227.284 -234.61 -233.226 -217.057 -226.874 -203.344C-221.409 -191.55 -208.227 -186.614 -196.274 -184.419C-160.482 -177.7 -122.027 -180.785 -86.3725 -187.162C-8.36946 -201.15 63.3497 -236.324 133.634 -271.499C169.221 -289.258 204.739 -308.251 241.964 -322.444C259.928 -329.301 278.849 -334.375 298.247 -333.278C317.031 -332.249 334.926 -325.324 351.046 -315.862C366.346 -306.879 380.348 -295.635 393.463 -283.635C406.918 -271.362 419.76 -256.826 423.106 -238.244C429.459 -202.453 402.41 -170.843 371.81 -157.199C339.707 -142.8 301.594 -141.36 267.032 -144.514C231.719 -147.668 196.884 -157.336 164.918 -172.695C102.693 -202.59 53.1724 -254.152 24.758 -317.164C10.8923 -347.882 2.35426 -380.863 -0.446205 -414.461C-0.924333 -417.135 -5.02259 -417.135 -4.81767 -414.529Z" fill="#E6007A"/>
</g>
<path d="M81.8806 174.48H113.164L123.138 138.314C124.513 133.327 131.526 133.33 132.897 138.318L142.836 174.48H174.06L198 82H168.687L161.199 118.702C160.112 124.031 152.615 124.179 151.323 118.896L142.298 82H113.702L104.91 119.125C103.655 124.425 96.1417 124.323 95.0293 118.99L92.3892 106.333C89.4311 92.1522 77.0264 82 62.6569 82H58L81.8806 174.48Z" fill="white"/>
<defs>
<linearGradient id="paint0_linear_31_20" x1="-35.7396" y1="124.928" x2="415.646" y2="124.533" gradientUnits="userSpaceOnUse">
<stop stop-color="#F79420" stop-opacity="0.92"/>
<stop offset="1" stop-color="#C4C4C4" stop-opacity="0"/>
</linearGradient>
</defs>
</svg>
