<svg width="256" height="256" viewBox="0 0 256 256" fill="none" xmlns="http://www.w3.org/2000/svg">
<g clip-path="url(#clip0_10_15)">
<path d="M256 0H0V256H256V0Z" fill="#FF8C00"/>
<path fill-rule="evenodd" clip-rule="evenodd" d="M144.145 50.8377C163.113 55.7783 179.228 71.2674 185.967 91.0377C187.789 96.3818 188.044 98.6901 187.994 109.378C187.945 120.364 187.701 122.262 185.599 128.073C184.312 131.63 181.514 137.328 179.381 140.736C168.276 158.48 152.025 167.836 129.099 169.685C119.862 170.43 114.241 172.722 110.265 177.367C107.103 181.061 106.644 182.281 103.809 194.531C102.513 200.128 101.533 202.439 99.8259 203.92C96.9989 206.373 93.0364 206.445 89.7473 204.102C86.4836 201.777 85.9159 198.273 87.5622 190.601C88.2827 187.239 90.6207 176.234 92.7561 166.147C96.7203 147.424 99.1735 136.104 102.124 122.915C103.037 118.832 104.233 113.139 104.781 110.262C106.416 101.685 111.793 98.1407 117.792 101.685C123.065 104.799 123.047 105.443 116.868 133.832C113.295 150.249 112.597 153.866 112.939 154.207C113.098 154.366 116.111 154.084 119.635 153.581C123.159 153.078 129.383 152.289 133.466 151.83C147.553 150.242 159.208 142.404 166.522 129.599C169.214 124.888 171.894 114.652 171.894 109.085C171.894 98.1818 166.8 86.3259 158.679 78.3302C141.694 61.6071 114.758 61.6071 97.7718 78.3311C91.7744 84.2368 88.5272 89.7783 86.2504 97.9957C84.2338 105.271 84.1089 111.996 85.8679 118.549C87.9403 126.271 87.6233 129.372 84.4906 132.008C80.6644 135.228 76.4085 135.079 73.1692 131.611C67.467 125.508 66.1927 103.165 70.8058 90.1643C78.8181 67.5809 96.8941 52.7783 120.802 49.2185C125.284 48.5512 139.026 49.504 144.145 50.8377ZM138.122 191.076C140.38 193.604 140.606 194.38 140.228 198.315C139.882 201.91 139.277 203.196 136.947 205.277C134.407 207.547 133.612 207.783 129.77 207.415C123.474 206.81 120.802 203.903 120.802 197.659C120.802 190.477 124.389 187.264 131.691 187.904C134.75 188.172 136.139 188.857 138.122 191.076Z" fill="white"/>
</g>
<defs>
<clipPath id="clip0_10_15">
<rect width="256" height="256" fill="white"/>
</clipPath>
</defs>
</svg>
