<svg width="512" height="512" viewBox="0 0 512 512" fill="none" xmlns="http://www.w3.org/2000/svg">
<g clip-path="url(#clip0_37_27)">
<rect width="512" height="512" fill="white"/>
<rect width="512" height="512" fill="#E6007A"/>
<path d="M255.992 447.999C292.536 447.999 322.161 429.963 322.161 407.714C322.161 385.465 292.536 367.429 255.992 367.429C219.447 367.429 189.822 385.465 189.822 407.714C189.822 429.963 219.447 447.999 255.992 447.999Z" fill="white"/>
<path d="M414.915 351.998C433.187 318.883 433.072 283.021 414.657 271.897C396.242 260.772 366.501 278.599 348.229 311.713C329.957 344.827 330.072 380.69 348.487 391.814C366.902 402.938 396.643 385.112 414.915 351.998Z" fill="white"/>
<path d="M255.992 144.571C292.536 144.571 322.161 126.535 322.161 104.286C322.161 82.0373 292.536 64.0012 255.992 64.0012C219.447 64.0012 189.822 82.0373 189.822 104.286C189.822 126.535 219.447 144.571 255.992 144.571Z" fill="white"/>
<path d="M163.771 200.285C182.043 167.171 181.928 131.309 163.513 120.184C145.098 109.06 115.357 126.886 97.0847 160.001C78.8125 193.115 78.9283 228.977 97.3432 240.102C115.758 251.226 145.499 233.4 163.771 200.285Z" fill="white"/>
<path d="M163.513 391.814C181.928 380.689 182.043 344.827 163.771 311.713C145.499 278.598 115.758 260.772 97.3432 271.896C78.9283 283.021 78.8125 318.883 97.0847 351.997C115.357 385.112 145.098 402.938 163.513 391.814Z" fill="white"/>
<path d="M414.657 240.104C433.072 228.979 433.187 193.117 414.915 160.003C396.643 126.888 366.902 109.062 348.487 120.186C330.072 131.311 329.957 167.173 348.229 200.287C366.501 233.402 396.242 251.228 414.657 240.104Z" fill="white"/>
<path fill-rule="evenodd" clip-rule="evenodd" d="M188.965 198.143C188.965 194.592 191.843 191.714 195.394 191.714H316.607C320.156 191.714 323.035 194.592 323.035 198.143V252.321H333.143C336.693 252.321 339.571 255.199 339.571 258.75C339.571 262.3 336.693 265.178 333.143 265.178H323.035V319.356C323.035 322.906 320.156 325.784 316.607 325.784H195.394C191.843 325.784 188.965 322.906 188.965 319.356V265.178H178.857C175.307 265.178 172.429 262.3 172.429 258.75C172.429 255.199 175.307 252.321 178.857 252.321H188.965V198.143ZM242.336 291.995C238.786 291.995 235.907 289.117 235.907 285.566V278.513H228.854C225.304 278.513 222.426 275.634 222.426 272.084C222.426 268.534 225.304 265.656 228.854 265.656H235.907V250.93H228.854C225.304 250.93 222.426 248.052 222.426 244.501C222.426 240.951 225.304 238.073 228.854 238.073H235.907V231.021C235.907 227.47 238.786 224.592 242.336 224.592C245.887 224.592 248.765 227.47 248.765 231.021V238.073H263.49V231.021C263.49 227.47 266.368 224.592 269.918 224.592C273.469 224.592 276.347 227.47 276.347 231.021V238.073H283.4C286.951 238.073 289.829 240.951 289.829 244.501C289.829 248.052 286.951 250.93 283.4 250.93H276.347V265.656H283.4C286.951 265.656 289.829 268.534 289.829 272.084C289.829 275.634 286.951 278.513 283.4 278.513H276.347V285.566C276.347 289.117 273.469 291.995 269.918 291.995C266.368 291.995 263.49 289.117 263.49 285.566V278.513H248.765V285.566C248.765 289.117 245.886 291.995 242.336 291.995ZM263.49 265.656H248.765V250.93H263.49V265.656Z" fill="white"/>
</g>
<defs>
<clipPath id="clip0_37_27">
<rect width="512" height="512" fill="white"/>
</clipPath>
</defs>
</svg>
